#!OML:ASF I:\Actors\actors\Patient Classification 2\Patient 1\Session 1\actor1.ASF
:FULLY-SPECIFIED
:DEGREES
616
root -0.403757 18.6622 5.86761 1.27469 -3.8692 -1.9955
lowerback 6.11763 1.1732 0.358886
upperback -4.59764 1.60774 -0.0243457
thorax -8.26243 0.764337 -0.438646
lowerneck -14.8717 -2.65688 -1.25243
upperneck 24.0911 -4.27171 3.13959
head 10.2429 -1.72013 0.757069
rclavicle 1.22004e-014 -5.1684e-015
rhumerus -17.9702 58.0371 -71.9427
rradius 129.325
rwrist -52.7581
rhand 27.3325 -67.4178
rfingers 7.12502
rthumb 51.2935 -87.9339
lclavicle 1.22004e-014 -5.1684e-015
lhumerus -66.2954 -42.1326 122.615
lradius 81.1497
lwrist 56.9389
lhand 10.1822 1.92501
lfingers 7.12502
lthumb 35.2991 28.4107
rfemur 0 0 0
rtibia 0
rfoot 0 0
rtoes 0
lfemur -2.96094 -2.99795 -13.2786
ltibia 22.7767
lfoot -25.5877 16.6783
ltoes -54.9177
617
root -0.407704 18.6616 5.8714 1.2507 -3.80327 -2.08283
lowerback 5.95056 1.17113 0.393407
upperback -4.54286 1.60841 -0.00759307
thorax -8.10489 0.764356 -0.435589
lowerneck -14.8477 -2.66884 -1.24338
upperneck 24.2091 -4.30453 3.17117
head 10.2826 -1.72937 0.762653
rclavicle 2.93207e-015 -7.15625e-015
rhumerus -20.2818 58.1231 -74.0677
rradius 128.807
rwrist -52.9559
rhand 27.505 -67.7475
rfingers 7.12502
rthumb 51.4505 -88.1739
lclavicle 2.93207e-015 -7.15625e-015
lhumerus -66.1339 -42.016 122.453
lradius 81.1811
lwrist 56.9191
lhand 10.1759 2.08756
lfingers 7.12502
lthumb 35.2932 28.5747
rfemur 0 0 0
rtibia 0
rfoot 0 0
rtoes 0
lfemur -2.88627 -3.01753 -13.1643
ltibia 22.6958
lfoot -25.4882 16.7072
ltoes -54.9646
618
root -0.411935 18.6607 5.87528 1.24282 -3.79982 -2.11045
lowerback 5.7843 1.20364 0.352361
upperback -4.49182 1.64734 -0.0029482
thorax -7.95357 0.78694 -0.407823
lowerneck -14.8733 -2.71394 -1.31999
upperneck 24.3281 -4.38513 3.29018
head 10.3379 -1.75739 0.80658
rclavicle -1.73191e-014 1.98785e-015
rhumerus -22.6808 58.204 -76.2813
rradius 128.356
rwrist -53.0568
rhand 27.4536 -67.7658
rfingers 7.12502
rthumb 51.4037 -88.2191
lclavicle -1.73191e-014 1.98785e-015
lhumerus -66.0036 -41.9181 122.335
lradius 81.1997
lwrist 56.8983
lhand 10.1871 2.20544
lfingers 7.12502
lthumb 35.3037 28.69
rfemur 0 0 0
rtibia 0
rfoot 0 0
rtoes 0
lfemur -2.81087 -3.02216 -13.12
ltibia 22.5922
lfoot -25.4511 16.7064
ltoes -54.9338
619
root -0.437763 18.6646 5.88328 1.46565 -3.95919 -1.4719
lowerback 5.2574 1.29724 -0.757688
upperback -4.48005 1.66754 -0.0798223
thorax -7.66401 0.856753 0.143936
lowerneck -14.8908 -2.742 -1.41011
upperneck 24.3355 -4.42704 3.38634
head 10.3498 -1.77319 0.849961
rclavicle 3.26255e-014 -1.03368e-014
rhumerus -24.7255 58.2812 -78.2254
rradius 128.069
rwrist -53.2283
rhand 27.3 -67.5388
rfingers 7.12502
rthumb 51.264 -88.0717
lclavicle 3.26255e-014 -1.03368e-014
lhumerus -65.8409 -41.7503 122.181
lradius 81.228
lwrist 56.896
lhand 10.2418 2.23083
lfingers 7.12502
lthumb 35.3557 28.7031
rfemur 0 0 0
rtibia 0
rfoot 0 0
rtoes 0
lfemur -3.02146 -3.0552 -13.7656
ltibia 22.4585
lfoot -25.4392 16.9187
ltoes -54.8997
620
root -0.449411 18.6653 5.88435 1.53063 -4.00363 -1.22334
lowerback 5.06614 1.31859 -1.25986
upperback -4.44245 1.65579 -0.0692825
thorax -7.52826 0.878206 0.442828
lowerneck -14.8721 -2.74148 -1.44401
upperneck 24.2586 -4.41565 3.39312
head 10.3188 -1.77153 0.859773
rclavicle -3.02898e-014 -7.95139e-016
rhumerus -26.439 58.2868 -79.9479
rradius 128.021
rwrist -53.5674
rhand 26.7355 -67.8176
rfingers 7.12502
rthumb 50.7496 -88.6377
lclavicle -3.02898e-014 -7.95139e-016
lhumerus -65.6427 -41.5078 122.006
lradius 81.2643
lwrist 56.8901
lhand 10.3017 2.1559
lfingers 7.12502
lthumb 35.4124 28.6146
rfemur 0 0 0
rtibia 0
rfoot 0 0
rtoes 0
lfemur -3.04521 -3.16833 -14.0251
ltibia 22.3309
lfoot -25.4334 17.1076
ltoes -54.8805
621
root -0.452959 18.6645 5.88166 1.48563 -3.9793 -1.24506
lowerback 5.02449 1.30208 -1.21525
upperback -4.34263 1.6369 -0.0928461
thorax -7.39451 0.865103 0.397958
lowerneck -14.8843 -2.73591 -1.34831
upperneck 24.1341 -4.4179 3.35837
head 10.273 -1.76942 0.830827
rclavicle -1.84621e-014 3.97569e-016
rhumerus -27.7536 58.082 -81.5353
rradius 128.042
rwrist -53.7586
rhand 26.4643 -67.5452
rfingers 7.12502
rthumb 50.5021 -88.5003
lclavicle -1.84621e-014 3.97569e-016
lhumerus -65.4335 -41.4004 121.733
lradius 81.2972
lwrist 56.889
lhand 10.284 2.05807
lfingers 7.12502
lthumb 35.3956 28.5208
rfemur 0 0 0
rtibia 0
rfoot 0 0
rtoes 0
lfemur -2.9392 -3.25106 -13.9964
ltibia 22.2046
lfoot -25.4316 17.1564
ltoes -54.8683
622
root -0.454401 18.6641 5.87841 1.45348 -3.97605 -1.2628
lowerback 5.06483 1.30712 -1.23507
upperback -4.29623 1.64553 -0.0355381
thorax -7.37088 0.871796 0.467818
lowerneck -14.8814 -2.75221 -1.35547
upperneck 24.054 -4.40896 3.25911
head 10.2406 -1.77876 0.79818
rclavicle 2.25124e-014 8.74653e-015
rhumerus -28.3863 58.0654 -82.2962
rradius 128.153
rwrist -54.2193
rhand 26.1787 -67.2406
rfingers 7.12502
rthumb 50.241 -88.3358
lclavicle 2.25124e-014 8.74653e-015
lhumerus -65.308 -41.2385 121.677
lradius 81.2918
lwrist 56.8349
lhand 10.2353 1.92249
lfingers 7.12502
lthumb 35.3495 28.3962
rfemur 0 0 0
rtibia 0
rfoot 0 0
rtoes 0
lfemur -2.89787 -3.27427 -13.9754
ltibia 22.1741
lfoot -25.4412 17.1354
ltoes -54.8656
623
root -0.454989 18.6644 5.8766 1.44486 -4.00558 -1.24377
lowerback 5.05493 1.31156 -1.30244
upperback -4.26449 1.65051 0.0303216
thorax -7.33548 0.879458 0.574639
lowerneck -14.8468 -2.76127 -1.36439
upperneck 24.01 -4.387 3.1434
head 10.2144 -1.78412 0.762241
rclavicle -1.3418e-015 3.97569e-016
rhumerus -28.2021 58.2609 -82.234
rradius 128.367
rwrist -55.1853
rhand 25.3123 -66.7151
rfingers 7.12502
rthumb 49.4477 -88.223
lclavicle -1.3418e-015 3.97569e-016
lhumerus -65.2212 -41.0811 121.65
lradius 81.3077
lwrist 56.7605
lhand 10.1692 1.81736
lfingers 7.12502
lthumb 35.2868 28.3059
rfemur 0 0 0
rtibia 0
rfoot 0 0
rtoes 0
lfemur -2.88835 -3.33578 -14.0101
ltibia 22.1778
lfoot -25.5074 17.1697
ltoes -54.852
624
root -0.455811 18.6645 5.87595 1.45689 -4.03209 -1.23013
lowerback 4.98346 1.29912 -1.33139
upperback -4.25493 1.63501 0.0685561
thorax -7.28549 0.874302 0.634482
lowerneck -14.7499 -2.75513 -1.3567
upperneck 24.0245 -4.37071 3.10201
head 10.1993 -1.78192 0.749787
rclavicle 3.75206e-015 1.15295e-014
rhumerus -28.1434 58.1414 -82.4115
rradius 128.496
rwrist -55.8272
rhand 25.021 -66.4949
rfingers 7.12502
rthumb 49.1805 -88.1376
lclavicle 3.75206e-015 1.15295e-014
lhumerus -65.2154 -41.0059 121.638
lradius 81.3107
lwrist 56.729
lhand 10.0693 1.75367
lfingers 7.12502
lthumb 35.1921 28.2647
rfemur 0 0 0
rtibia 0
rfoot 0 0
rtoes 0
lfemur -2.89785 -3.34047 -14.0249
ltibia 22.178
lfoot -25.5271 17.1962
ltoes -54.8545
625
root -0.45623 18.6642 5.87558 1.46294 -4.06465 -1.23928
lowerback 4.89265 1.27911 -1.25244
upperback -4.25742 1.61559 0.0635579
thorax -7.23229 0.860438 0.589322
lowerneck -14.5895 -2.71138 -1.43663
upperneck 24.0684 -4.33389 3.26452
head 10.1894 -1.75475 0.827456
rclavicle 5.2181e-015 -6.16232e-015
rhumerus -28.3208 57.7341 -82.8945
rradius 128.493
rwrist -55.8552
rhand 25.4354 -66.6709
rfingers 7.12502
rthumb 49.5606 -88.1213
lclavicle 5.2181e-015 -6.16232e-015
lhumerus -65.2879 -41.0244 121.65
lradius 81.2814
lwrist 56.7104
lhand 10.0305 1.68983
lfingers 7.12502
lthumb 35.1553 28.2095
rfemur 0 0 0
rtibia 0
rfoot 0 0
rtoes 0
lfemur -2.89049 -3.2685 -14.0052
ltibia 22.1635
lfoot -25.4768 17.1976
ltoes -54.8532
626
root -0.456122 18.6641 5.87591 1.44115 -4.1355 -1.25986
lowerback 4.88132 1.28473 -1.16005
upperback -4.28927 1.63073 0.0640909
thorax -7.25721 0.863367 0.536238
lowerneck -14.37 -2.66977 -1.55273
upperneck 24.1007 -4.29892 3.45762
head 10.1654 -1.72918 0.922437
rclavicle -1.68222e-014 -1.37161e-014
rhumerus -28.5377 57.3761 -83.3128
rradius 128.46
rwrist -55.666
rhand 25.5867 -66.8109
rfingers 7.12502
rthumb 49.6992 -88.1901
lclavicle -1.68222e-014 -1.37161e-014
lhumerus -65.4419 -41.0906 121.764
lradius 81.276
lwrist 56.6703
lhand 10.0086 1.69617
lfingers 7.12502
lthumb 35.1345 28.2207
rfemur 0 0 0
rtibia 0
rfoot 0 0
rtoes 0
lfemur -2.83261 -3.21895 -13.9874
ltibia 22.1368
lfoot -25.486 17.2127
ltoes -54.8881
